<svg width="256" height="256" viewBox="0 0 256 256" fill="none" xmlns="http://www.w3.org/2000/svg">
<g clip-path="url(#clip0_3_14)">
<circle cx="128" cy="128" r="128" fill="white"/>
<path d="M79.5102 68.68C87.2168 68.68 94.3002 70.6067 100.76 74.46C107.333 78.2 112.49 83.3567 116.23 89.93C120.083 96.39 122.01 103.473 122.01 111.18V146.2C122.01 153.907 120.083 161.047 116.23 167.62C112.49 174.08 107.333 179.237 100.76 183.09C94.3002 186.83 87.2168 188.7 79.5102 188.7H71.8602C64.1535 188.7 57.0135 186.83 50.4402 183.09C43.9802 179.237 38.8235 174.08 34.9702 167.62C31.2302 161.047 29.3602 153.907 29.3602 146.2V111.18C29.3602 103.473 31.2302 96.39 34.9702 89.93C38.8235 83.3567 43.9802 78.2 50.4402 74.46C57.0135 70.6067 64.1535 68.68 71.8602 68.68H79.5102ZM75.7702 93.16C72.1435 93.16 69.0835 94.52 66.5902 97.24C64.2102 99.8467 63.0202 103.02 63.0202 106.76V150.45C63.0202 154.19 64.2102 157.42 66.5902 160.14C69.0835 162.747 72.0868 164.05 75.6002 164.05C79.2268 164.05 82.2302 162.747 84.6102 160.14C87.1035 157.42 88.3502 154.19 88.3502 150.45V106.76C88.3502 103.02 87.1035 99.8467 84.6102 97.24C82.2302 94.52 79.2835 93.16 75.7702 93.16ZM184.1 68.68C191.807 68.68 198.89 70.6067 205.35 74.46C211.923 78.2 217.08 83.3567 220.82 89.93C224.673 96.39 226.6 103.473 226.6 111.18V146.2C226.6 153.907 224.673 161.047 220.82 167.62C217.08 174.08 211.923 179.237 205.35 183.09C198.89 186.83 191.807 188.7 184.1 188.7H176.45C168.743 188.7 161.603 186.83 155.03 183.09C148.57 179.237 143.413 174.08 139.56 167.62C135.82 161.047 133.95 153.907 133.95 146.2V111.18C133.95 103.473 135.82 96.39 139.56 89.93C143.413 83.3567 148.57 78.2 155.03 74.46C161.603 70.6067 168.743 68.68 176.45 68.68H184.1ZM180.36 93.16C176.733 93.16 173.673 94.52 171.18 97.24C168.8 99.8467 167.61 103.02 167.61 106.76V150.45C167.61 154.19 168.8 157.42 171.18 160.14C173.673 162.747 176.677 164.05 180.19 164.05C183.817 164.05 186.82 162.747 189.2 160.14C191.693 157.42 192.94 154.19 192.94 150.45V106.76C192.94 103.02 191.693 99.8467 189.2 97.24C186.82 94.52 183.873 93.16 180.36 93.16Z" fill="black"/>
</g>
<defs>
<clipPath id="clip0_3_14">
<rect width="256" height="256" fill="white"/>
</clipPath>
</defs>
</svg>
